<svg width="80" height="80" viewBox="0 0 80 80" fill="none" xmlns="http://www.w3.org/2000/svg">
<path d="M40 40V60" stroke="#44B649" stroke-width="4" stroke-linecap="round"/>
<path d="M40.0001 60C34.4214 60 29.5658 63.3733 27.0589 68.35C25.8616 70.7267 27.5797 73.3333 29.8626 73.3333H50.1374C52.4204 73.3333 54.1384 70.7267 52.9411 68.35C50.4344 63.3733 45.5787 60 40.0001 60Z" stroke="#44B649" stroke-width="4" stroke-linecap="round"/>
<path d="M16.6667 16.6667H13.2824C9.99405 16.6667 8.34985 16.6667 7.33398 17.9018C6.31812 19.1369 6.61602 20.52 7.21182 23.2861C8.34988 28.5696 10.8183 33.2114 14.1631 36.6667" stroke="#44B649" stroke-width="4" stroke-linecap="round"/>
<path d="M63.3333 16.6667H66.7176C70.0059 16.6667 71.6503 16.6667 72.6659 17.9018C73.6819 19.1369 73.3839 20.52 72.7883 23.2861C71.6503 28.5696 69.1816 33.2114 65.8369 36.6667" stroke="#44B649" stroke-width="4" stroke-linecap="round"/>
<path d="M40.0001 40.0001C52.8867 40.0001 63.3334 29.6104 63.3334 16.7941C63.3334 16.458 63.3261 16.1236 63.3121 15.791C63.1694 12.4603 63.0984 10.7949 60.8411 8.73081C58.5838 6.66675 56.0824 6.66675 51.0801 6.66675H28.9199C23.9176 6.66675 21.4165 6.66675 19.1591 8.73081C16.9018 10.7949 16.8306 12.4603 16.6881 15.791C16.6739 16.1236 16.6667 16.458 16.6667 16.7941C16.6667 29.6104 27.1134 40.0001 40.0001 40.0001Z" stroke="#44B649" stroke-width="4" stroke-linecap="round"/>
</svg>
