<svg width="80" height="80" viewBox="0 0 80 80" fill="none" xmlns="http://www.w3.org/2000/svg">
<path d="M17.1428 46.6667C14.7244 42.6941 13.3333 38.0394 13.3333 33.0629C13.3333 18.4847 25.2723 6.66675 39.9999 6.66675C54.7276 6.66675 66.6666 18.4847 66.6666 33.0629C66.6666 38.0394 65.2756 42.6941 62.8569 46.6667" stroke="#44B649" stroke-width="4" stroke-linecap="round"/>
<path d="M46.6666 33.3333C44.6249 35.4773 42.3703 36.6666 39.9999 36.6666C37.6296 36.6666 35.3749 35.4773 33.3333 33.3333" stroke="#44B649" stroke-width="4" stroke-linecap="round"/>
<path d="M24.6096 56.9939C24.3034 56.0719 24.1503 55.6109 24.1681 55.2376C24.2059 54.4476 24.7039 53.7539 25.4386 53.4683C25.786 53.3333 26.2702 53.3333 27.2386 53.3333H52.7614C53.7301 53.3333 54.2141 53.3333 54.5614 53.4683C55.2964 53.7539 55.7944 54.4476 55.8321 55.2376C55.8497 55.6109 55.6967 56.0719 55.3904 56.9939C54.8244 58.6979 54.5414 59.5503 54.1051 60.2399C53.1907 61.6853 51.7574 62.7223 50.1021 63.1359C49.3117 63.3333 48.4167 63.3333 46.6271 63.3333H33.3731C31.5832 63.3333 30.6884 63.3333 29.8982 63.1359C28.2428 62.7223 26.8094 61.6853 25.8951 60.2399C25.4586 59.5503 25.1756 58.6979 24.6096 56.9939Z" stroke="#44B649" stroke-width="4"/>
<path d="M50 63.3333L49.569 65.4886C49.0977 67.8456 48.862 69.0239 48.3337 69.9553C47.5173 71.3949 46.194 72.4796 44.622 72.9979C43.6053 73.3333 42.4037 73.3333 40 73.3333C37.5963 73.3333 36.3947 73.3333 35.378 72.9979C33.806 72.4796 32.4828 71.3949 31.6662 69.9553C31.1381 69.0239 30.9024 67.8456 30.4311 65.4886L30 63.3333" stroke="#44B649" stroke-width="4"/>
<path d="M40 51.6667V36.6667" stroke="#44B649" stroke-width="4" stroke-linecap="round" stroke-linejoin="round"/>
</svg>
