<svg width="72" height="72" viewBox="0 0 72 72" fill="none" xmlns="http://www.w3.org/2000/svg">
<path d="M2.6665 32.6667C10.4388 24.5262 21.4773 24.1429 29.3332 32.6667M24.3168 11.0001C24.3168 15.6025 20.5805 19.3334 15.9716 19.3334C11.3627 19.3334 7.6264 15.6025 7.6264 11.0001C7.6264 6.39771 11.3627 2.66675 15.9716 2.66675C20.5805 2.66675 24.3168 6.39771 24.3168 11.0001Z" stroke="#44B649" stroke-width="4" stroke-linecap="round"/>
<path d="M42.6665 69.3335C50.4388 61.1929 61.4773 60.8096 69.3332 69.3335M64.3168 47.6668C64.3168 52.2692 60.5805 56.0002 55.9716 56.0002C51.3627 56.0002 47.6264 52.2692 47.6264 47.6668C47.6264 43.0645 51.3627 39.3335 55.9716 39.3335C60.5805 39.3335 64.3168 43.0645 64.3168 47.6668Z" stroke="#44B649" stroke-width="4" stroke-linecap="round"/>
<path d="M6 42.6667C6 55.5667 16.4333 66 29.3333 66L26 59.3333" stroke="#44B649" stroke-width="4" stroke-linecap="round" stroke-linejoin="round"/>
<path d="M46 6H66M46 16H66M46 26H57.6667" stroke="#44B649" stroke-width="4" stroke-linecap="round" stroke-linejoin="round"/>
</svg>
