<svg width="119" height="87" viewBox="0 0 119 87" fill="none" xmlns="http://www.w3.org/2000/svg">
<path fill-rule="evenodd" clip-rule="evenodd" d="M77.9422 55.617C76.8266 57.2118 75.6341 58.9418 75.4005 59.3645L93.745 59.3842C94.1352 59.3842 95.8938 56.5835 96.1356 56.2538C96.2868 56.0453 96.4407 55.834 96.589 55.6227H93.6104C93.0608 58.0402 89.9448 57.2625 89.9448 55.0591C89.9448 53.2108 93.0581 52.2415 93.6104 54.6816H97.2513C97.6552 54.1011 98.0536 53.5235 98.4576 52.96L98.5785 52.7881C96.8391 52.6529 97.4354 51.4864 96.5451 51.4864H91.4121C90.8955 51.4864 89.8843 53.1347 89.5738 53.5517C89.2633 53.9687 89.0243 54.304 88.7055 54.7295L88.2988 55.2507C88.046 55.5156 88.2988 55.6227 87.7492 55.6227L77.9422 55.617ZM93.8961 33.076L91.6429 36.2966C88.3455 40.74 85.0124 45.7243 81.7123 50.3453H84.625C85.1965 48.1531 88.2934 48.9364 88.2934 50.9088C88.2934 52.8811 85.1965 53.6644 84.625 51.4723H80.8989C80.5939 51.8978 80.2862 52.3176 79.9811 52.7346C79.8053 52.9741 79.2612 53.7377 78.6072 54.6675H87.5624C88.0598 53.7067 89.8843 51.5681 90.6812 50.3424H96.9161C97.2568 49.6831 97.57 49.0266 98.5648 49.0266C99.5595 49.0266 100.213 49.4943 100.455 50.0973C101.329 48.8463 102.195 47.6009 103.11 46.3583C103.893 45.2904 104.668 44.1916 105.443 43.073L112.4 33.1775C112.515 32.8647 110.611 30.3147 110.325 29.9203L103.36 20.0248C102.338 18.5962 94.3331 7.32855 94.1435 6.78193H75.5022L89.299 26.4828C90.1234 27.5873 90.8323 28.6777 91.621 29.7794L93.8961 33.076ZM26.522 59.3786C26.8243 57.688 29.4485 54.4083 30.5009 52.9206C30.946 52.2894 34.6391 47.2487 34.8562 46.7218C34.5814 46.533 32.6167 43.6675 32.4079 43.3547C30.6383 40.6921 28.2229 37.556 26.4231 34.8455L25.5273 33.5747C25.1426 33.0112 25.0629 33.169 25.7636 32.2195L29.8194 26.4997C31.328 24.3076 32.8228 22.0873 34.4001 19.9374C34.8012 19.388 35.1365 18.8695 35.5349 18.3145L43.6163 6.76221H24.8541C24.7222 7.33982 23.0927 9.44459 22.6558 10.0898L10.0158 28.1057C9.34256 29.1426 6.92172 32.4308 6.59473 33.0676L7.74607 34.775C7.96315 35.0568 8.08955 35.2794 8.29564 35.5978L11.8898 40.6695C12.1179 40.9936 12.2855 41.233 12.4943 41.543C15.0031 45.3186 18.2648 49.6127 20.8313 53.4221L24.4034 58.5192C25.1481 59.5392 24.9503 59.3786 26.522 59.3786ZM97.8256 50.9088C98.2542 50.0635 97.93 50.4101 98.7406 49.9705C99.5649 50.4101 99.2297 50.0776 99.6584 50.9088C99.2297 51.7541 99.5539 51.4103 98.7406 51.8499C97.9355 51.4103 98.2597 51.7428 97.8311 50.9088H97.8256ZM87.0101 51.6724C85.7131 51.9823 85.5428 51.7146 85.5428 50.7341C85.5428 49.5873 87.8674 49.7 87.0101 51.6724ZM91.0439 55.2451C91.0439 53.9518 92.6926 53.9518 92.6926 55.2451C92.6954 56.2566 91.0439 56.2566 91.0439 55.2338V55.2451ZM28.6516 59.3814C33.224 59.4884 38.4696 59.3391 43.1217 59.3532L49.4417 59.3898C50.1836 59.3898 50.3897 58.939 50.7332 58.4262L53.5387 54.428C54.8742 52.6388 56.0283 50.8383 57.3445 49.0745L61.1255 43.783C62.4088 41.9713 63.648 40.2525 64.9313 38.4295L70.5588 30.45C71.4656 29.1567 79.9234 17.4438 80.0636 16.9648C78.1401 13.9838 75.2768 10.38 73.3671 7.3849C73.0923 6.97353 73.0923 6.82138 72.6637 6.82138H66.0551C65.7089 6.82138 65.0082 8.01042 64.7966 8.31754C64.4147 8.88106 64.0217 9.44459 63.6095 9.98839C62.7852 11.1154 62.0927 12.1805 61.2739 13.2737C58.9712 16.359 56.5449 20.053 54.2834 23.1354C53.8657 23.699 53.5167 24.2146 53.1403 24.7527C52.7638 25.2909 52.3434 25.8206 51.945 26.418C51.1866 27.545 50.387 28.5791 49.6093 29.7005L44.938 36.2825C44.5451 36.846 44.1796 37.3447 43.7839 37.8857L33.2542 52.698C32.7211 53.3939 28.9181 58.5868 28.6516 59.3701V59.3814Z" fill="#44B649"/>
<path d="M23.5187 68.4542C21.87 68.1724 21.2847 67.9752 21.2847 67.4427C21.2847 66.9101 21.6639 66.3381 23.3264 66.3381C25.368 66.3381 25.6703 67.3807 25.6703 68.0822H27.9208C27.9208 66.541 27.1568 64.3433 23.3264 64.3433C20.1059 64.3433 19.0727 65.9944 19.0727 67.4229C19.0727 69.2741 20.3999 69.8996 23.3484 70.3448C25.2718 70.6266 25.956 70.7562 25.956 71.4465C25.956 72.2298 25.2828 72.6158 23.6589 72.6158C22.3784 72.6158 21.0677 72.3735 21.0677 70.8463H18.8694C18.8694 71.8241 18.8694 74.5881 23.733 74.5881C26.6183 74.5881 28.2505 73.957 28.2505 71.4437C28.245 69.1558 25.728 68.8233 23.5187 68.4542Z" fill="#44B649"/>
<path d="M33.6664 69.8543H31.3143V66.3689H33.6994C34.4166 66.3689 35.7932 66.3689 35.7932 68.1102C35.785 69.9389 34.2297 69.8543 33.6664 69.8543ZM33.595 64.467C33.0097 64.467 31.8391 64.467 31.3143 64.467H29.1682V74.5879H31.3143V71.7534H33.5867C34.5237 71.7534 37.8047 71.8887 37.8047 68.1159C37.7882 64.4783 34.7656 64.467 33.5867 64.467H33.595Z" fill="#44B649"/>
<path d="M43.2619 69.2516H40.7559V66.434H43.2839C43.9516 66.434 45.2458 66.434 45.2458 67.8428C45.2458 69.2516 43.8719 69.2516 43.2619 69.2516ZM47.249 67.8428C47.249 64.4617 44.6138 64.4617 43.4268 64.4617H40.7559H38.6125V74.5826H40.7559V71.2212H43.0283C43.1629 71.2212 43.3471 71.2211 43.5587 71.2071L45.1579 74.5882H47.4853L45.6003 70.7027C46.4906 70.2293 47.249 69.5954 47.249 67.8485V67.8428Z" fill="#44B649"/>
<path d="M50.3211 64.467H48.175V74.5879H50.3211V64.467Z" fill="#44B649"/>
<path d="M58.9711 71.7309H58.721L54.4014 64.4783H54.2091V64.467H51.3074V74.5879H53.4534V67.3269H53.7007L58.0258 74.5879H61.1199V64.467H58.9711V71.7309Z" fill="#44B649"/>
<path d="M62.0269 66.476H65.7584V74.5879H67.9017V66.476H71.636V64.467H62.0269V66.476Z" fill="#44B649"/>
<path d="M72.4934 64.467V74.5879H74.6395H80.605V72.5733H74.6395V70.5193H80.605V68.5329H74.6395V66.4563H80.605V64.467H72.4934Z" fill="#44B649"/>
<path d="M86.1995 69.2516H83.6934V66.434H86.2324C86.9002 66.434 88.1944 66.434 88.1944 67.8428C88.1944 69.2516 86.8095 69.2516 86.1995 69.2516ZM90.1838 67.8428C90.1838 64.4617 87.5514 64.4617 86.3643 64.4617H83.6934H81.5474V74.5826H83.6934V71.2212H85.9659C86.1005 71.2212 86.2846 71.2211 86.4962 71.2071L88.0954 74.5882H90.4229L88.5378 70.7027C89.4281 70.2293 90.1838 69.5954 90.1838 67.8485V67.8428Z" fill="#44B649"/>
<path d="M95.3993 68.4542C93.7506 68.1724 93.1654 67.9752 93.1654 67.4427C93.1654 66.9101 93.5445 66.3381 95.207 66.3381C97.2486 66.3381 97.5509 67.3807 97.5509 68.0822H99.8014C99.8014 66.541 99.0375 64.3433 95.207 64.3433C91.9865 64.3433 90.9533 65.9944 90.9533 67.4229C90.9533 69.2741 92.2806 69.8996 95.229 70.3448C97.1525 70.6266 97.8367 70.7562 97.8367 71.4465C97.8367 72.2298 97.1635 72.6158 95.5395 72.6158C94.259 72.6158 92.9483 72.3735 92.9483 70.8463H90.75C90.75 71.8241 90.75 74.5881 95.6137 74.5881C98.4989 74.5881 100.131 73.957 100.131 71.4437C100.126 69.1558 97.6086 68.8233 95.3993 68.4542Z" fill="#44B649"/>
<path d="M39.7913 78.3551H41.2504L40.8053 77.1379C40.6706 76.7688 40.5689 76.4645 40.4975 76.2222C40.439 76.5095 40.36 76.792 40.2612 77.0675L39.7913 78.3551ZM38.5603 80.1584L40.209 75.7686H40.83L42.5721 80.1584H41.9291L41.4345 78.8285H39.6319L39.1621 80.1584H38.5603Z" fill="#222222"/>
<path d="M48.3509 78.4398V77.927H50.1535V79.5527C49.8942 79.768 49.6041 79.941 49.2934 80.0655C49.0027 80.1781 48.6946 80.2363 48.3839 80.2374C47.9851 80.2419 47.5914 80.1451 47.238 79.9556C46.9029 79.7811 46.6306 79.5019 46.4604 79.1583C46.2776 78.7961 46.1833 78.3939 46.1856 77.9861C46.1832 77.5728 46.2724 77.1642 46.4466 76.7914C46.6031 76.4411 46.8664 76.1523 47.1968 75.9687C47.5451 75.7789 47.9344 75.682 48.3289 75.6869C48.6108 75.6839 48.8907 75.7365 49.1532 75.8419C49.3829 75.9284 49.586 76.0763 49.7413 76.2702C49.8976 76.4835 50.0081 76.7284 50.0655 76.9887L49.5544 77.1324C49.5042 76.9442 49.4233 76.7661 49.3153 76.6055C49.2075 76.4681 49.0663 76.3622 48.9059 76.2984C48.7194 76.2199 48.5195 76.1806 48.3179 76.1828C48.0889 76.1784 47.8612 76.2196 47.6474 76.304C47.4738 76.3747 47.318 76.4845 47.1913 76.6252C47.076 76.7526 46.9831 76.8994 46.9165 77.0591C46.805 77.3399 46.7489 77.6407 46.7516 77.9439C46.7408 78.2831 46.8085 78.6201 46.9495 78.9272C47.0715 79.1827 47.2724 79.3898 47.521 79.5161C47.7695 79.6427 48.0432 79.7083 48.3206 79.7077C48.5668 79.7078 48.8105 79.6581 49.0378 79.5612C49.2305 79.4883 49.4098 79.3826 49.5682 79.2484V78.4398H48.3509Z" fill="#222222"/>
<path d="M54.3411 80.1584V75.7686H57.4324V76.2842H54.9099V77.631H57.2703V78.1466H54.9099V79.6428H57.534V80.1584H54.3411Z" fill="#222222"/>
<path d="M61.6421 80.1584V75.7686H62.2246L64.4696 79.2145V75.7686H65.0137V80.1584H64.4311L62.1862 76.7125V80.1584H61.6421Z" fill="#222222"/>
<path d="M72.3449 78.6173L72.911 78.7638C72.8237 79.1903 72.5992 79.5743 72.2735 79.8542C71.9503 80.111 71.5501 80.2445 71.1414 80.2318C70.748 80.2521 70.3574 80.1542 70.0175 79.95C69.7194 79.7439 69.4901 79.4488 69.3608 79.1047C69.2087 78.7318 69.1321 78.3311 69.1355 77.927C69.1279 77.5194 69.2146 77.1158 69.3883 76.7492C69.5477 76.4204 69.8019 76.1499 70.1165 75.9744C70.4339 75.7964 70.7906 75.7051 71.1524 75.7095C71.5379 75.6947 71.9171 75.8127 72.2295 76.0448C72.5305 76.279 72.7455 76.6107 72.8396 76.9859L72.29 77.1211C72.2212 76.8484 72.0702 76.6048 71.8586 76.4252C71.6517 76.2729 71.4013 76.1955 71.1469 76.2054C70.8539 76.1939 70.5651 76.2788 70.3225 76.4477C70.1025 76.6068 69.9394 76.8354 69.8581 77.0986C69.7678 77.3707 69.7223 77.6564 69.7235 77.9439C69.717 78.2769 69.7701 78.6082 69.8801 78.9216C69.9719 79.1803 70.1462 79.3997 70.3747 79.5443C70.5921 79.6812 70.8423 79.7534 71.0974 79.7528C71.39 79.7607 71.6757 79.6607 71.9025 79.471C72.1388 79.2482 72.2956 78.9506 72.3477 78.6257" fill="#222222"/>
<path d="M78.1511 80.1584V78.2988L76.5024 75.7629H77.1839L78.0302 77.09C78.1868 77.338 78.3353 77.5831 78.4671 77.8283C78.599 77.6 78.7419 77.3436 78.9398 77.0562L79.7641 75.7629H80.4236L78.7144 78.2988V80.1584H78.1511Z" fill="#222222"/>
<path d="M39.7913 78.3551H41.2504L40.8053 77.1379C40.6706 76.7688 40.5689 76.4645 40.4975 76.2222C40.439 76.5095 40.36 76.792 40.2612 77.0675L39.7913 78.3551ZM38.5603 80.1584L40.209 75.7686H40.83L42.5721 80.1584H41.9291L41.4345 78.8285H39.6319L39.1621 80.1584H38.5603Z" stroke="#373435" stroke-width="0.22" stroke-miterlimit="2.61"/>
<path d="M48.3509 78.4398V77.927H50.1535V79.5527C49.8942 79.768 49.6041 79.941 49.2934 80.0655C49.0027 80.1781 48.6946 80.2363 48.3839 80.2374C47.9851 80.2419 47.5914 80.1451 47.238 79.9556C46.9029 79.7811 46.6306 79.5019 46.4604 79.1583C46.2776 78.7961 46.1833 78.3939 46.1856 77.9861C46.1832 77.5728 46.2724 77.1642 46.4466 76.7914C46.6031 76.4411 46.8664 76.1523 47.1968 75.9687C47.5451 75.7789 47.9344 75.682 48.3289 75.6869C48.6108 75.6839 48.8907 75.7365 49.1532 75.8419C49.3829 75.9284 49.586 76.0763 49.7413 76.2702C49.8976 76.4835 50.0081 76.7284 50.0655 76.9887L49.5544 77.1324C49.5042 76.9442 49.4233 76.7661 49.3153 76.6055C49.2075 76.4681 49.0663 76.3622 48.9059 76.2984C48.7194 76.2199 48.5195 76.1806 48.3179 76.1828C48.0889 76.1784 47.8612 76.2196 47.6474 76.304C47.4738 76.3747 47.318 76.4845 47.1913 76.6252C47.076 76.7526 46.9831 76.8994 46.9165 77.0591C46.805 77.3399 46.7489 77.6407 46.7516 77.9439C46.7408 78.2831 46.8085 78.6201 46.9495 78.9272C47.0715 79.1827 47.2724 79.3898 47.521 79.5161C47.7695 79.6427 48.0432 79.7083 48.3206 79.7077C48.5668 79.7078 48.8105 79.6581 49.0378 79.5612C49.2305 79.4883 49.4098 79.3826 49.5682 79.2484V78.4398H48.3509Z" stroke="#373435" stroke-width="0.22" stroke-miterlimit="2.61"/>
<path d="M54.3411 80.1584V75.7686H57.4324V76.2842H54.9099V77.631H57.2703V78.1466H54.9099V79.6428H57.534V80.1584H54.3411Z" stroke="#373435" stroke-width="0.22" stroke-miterlimit="2.61"/>
<path d="M61.6421 80.1584V75.7686H62.2246L64.4696 79.2145V75.7686H65.0137V80.1584H64.4311L62.1862 76.7125V80.1584H61.6421Z" stroke="#373435" stroke-width="0.22" stroke-miterlimit="2.61"/>
<path d="M72.3449 78.6173L72.911 78.7638C72.8237 79.1903 72.5992 79.5743 72.2735 79.8542C71.9503 80.111 71.5501 80.2445 71.1414 80.2318C70.748 80.2521 70.3574 80.1542 70.0175 79.95C69.7194 79.7439 69.4901 79.4488 69.3608 79.1047C69.2087 78.7318 69.1321 78.3311 69.1355 77.927C69.1279 77.5194 69.2146 77.1158 69.3883 76.7492C69.5477 76.4204 69.8019 76.1499 70.1165 75.9744C70.4339 75.7964 70.7906 75.7051 71.1524 75.7095C71.5379 75.6947 71.9171 75.8127 72.2295 76.0448C72.5305 76.279 72.7455 76.6107 72.8396 76.9859L72.29 77.1211C72.2212 76.8484 72.0702 76.6048 71.8586 76.4252C71.6517 76.2729 71.4013 76.1955 71.1469 76.2054C70.8539 76.1939 70.5651 76.2788 70.3225 76.4477C70.1025 76.6068 69.9394 76.8354 69.8581 77.0986C69.7678 77.3707 69.7223 77.6564 69.7235 77.9439C69.717 78.2769 69.7701 78.6082 69.8801 78.9216C69.9719 79.1803 70.1462 79.3997 70.3747 79.5443C70.5921 79.6812 70.8423 79.7534 71.0974 79.7528C71.39 79.7607 71.6757 79.6607 71.9025 79.471C72.1394 79.2456 72.2953 78.9448 72.3449 78.6173Z" stroke="#373435" stroke-width="0.22" stroke-miterlimit="2.61"/>
<path d="M78.1511 80.1584V78.2988L76.5024 75.7629H77.1839L78.0302 77.09C78.1868 77.338 78.3353 77.5831 78.4671 77.8283C78.599 77.6 78.7419 77.3436 78.9398 77.0562L79.7641 75.7629H80.4236L78.7144 78.2988V80.1584H78.1511Z" stroke="#373435" stroke-width="0.22" stroke-miterlimit="2.61"/>
</svg>
