<svg width="1216" height="243" viewBox="0 0 1216 243" fill="none" xmlns="http://www.w3.org/2000/svg">
<rect x="0.75" y="0.75" width="342.5" height="241.5" rx="120.75" stroke="#D5D0DD" stroke-width="1.5"/>
<path d="M117.545 185H110.152V163.182H117.695C119.861 163.182 121.722 163.619 123.277 164.492C124.839 165.359 126.04 166.605 126.878 168.232C127.716 169.858 128.135 171.804 128.135 174.07C128.135 176.342 127.712 178.295 126.867 179.929C126.029 181.562 124.818 182.816 123.234 183.69C121.658 184.563 119.761 185 117.545 185ZM114.104 181.58H117.354C118.874 181.58 120.141 181.303 121.157 180.749C122.173 180.188 122.936 179.354 123.447 178.246C123.959 177.131 124.214 175.739 124.214 174.07C124.214 172.401 123.959 171.016 123.447 169.915C122.936 168.807 122.18 167.979 121.178 167.433C120.184 166.879 118.948 166.602 117.471 166.602H114.104V181.58ZM131.72 185V168.636H135.576V185H131.72ZM133.659 166.314C133.048 166.314 132.522 166.112 132.082 165.707C131.642 165.295 131.422 164.801 131.422 164.226C131.422 163.643 131.642 163.15 132.082 162.745C132.522 162.333 133.048 162.127 133.659 162.127C134.277 162.127 134.802 162.333 135.235 162.745C135.676 163.15 135.896 163.643 135.896 164.226C135.896 164.801 135.676 165.295 135.235 165.707C134.802 166.112 134.277 166.314 133.659 166.314ZM152.475 172.962L148.96 173.345C148.86 172.99 148.686 172.656 148.438 172.344C148.196 172.031 147.869 171.779 147.458 171.587C147.046 171.396 146.541 171.3 145.945 171.3C145.142 171.3 144.468 171.474 143.921 171.822C143.381 172.17 143.115 172.621 143.122 173.175C143.115 173.651 143.289 174.038 143.644 174.336C144.006 174.634 144.602 174.879 145.433 175.071L148.225 175.668C149.773 176.001 150.923 176.531 151.676 177.255C152.436 177.979 152.82 178.928 152.827 180.099C152.82 181.129 152.518 182.038 151.921 182.827C151.332 183.608 150.512 184.219 149.46 184.659C148.409 185.099 147.202 185.32 145.838 185.32C143.835 185.32 142.223 184.901 141.002 184.062C139.78 183.217 139.052 182.042 138.818 180.536L142.578 180.174C142.749 180.913 143.111 181.47 143.665 181.847C144.219 182.223 144.94 182.411 145.828 182.411C146.744 182.411 147.479 182.223 148.033 181.847C148.594 181.47 148.874 181.005 148.874 180.451C148.874 179.982 148.693 179.595 148.331 179.29C147.976 178.984 147.422 178.75 146.669 178.587L143.878 178.001C142.308 177.674 141.147 177.124 140.394 176.349C139.642 175.568 139.269 174.581 139.276 173.388C139.269 172.379 139.542 171.506 140.096 170.767C140.657 170.021 141.435 169.446 142.429 169.041C143.431 168.629 144.585 168.423 145.892 168.423C147.809 168.423 149.318 168.832 150.419 169.648C151.527 170.465 152.213 171.57 152.475 172.962ZM163.145 185.32C161.511 185.32 160.108 184.961 158.937 184.244C157.772 183.526 156.873 182.536 156.241 181.271C155.616 180 155.304 178.537 155.304 176.882C155.304 175.22 155.623 173.754 156.263 172.482C156.902 171.204 157.804 170.21 158.969 169.499C160.14 168.782 161.525 168.423 163.123 168.423C164.452 168.423 165.627 168.668 166.65 169.158C167.68 169.641 168.5 170.327 169.111 171.214C169.721 172.095 170.069 173.125 170.155 174.304H166.469C166.319 173.516 165.964 172.859 165.403 172.333C164.849 171.8 164.107 171.534 163.177 171.534C162.388 171.534 161.696 171.747 161.099 172.173C160.503 172.592 160.037 173.196 159.704 173.984C159.377 174.773 159.214 175.717 159.214 176.818C159.214 177.933 159.377 178.892 159.704 179.695C160.03 180.49 160.488 181.104 161.078 181.538C161.675 181.964 162.374 182.177 163.177 182.177C163.745 182.177 164.253 182.07 164.7 181.857C165.155 181.637 165.535 181.321 165.84 180.909C166.145 180.497 166.355 179.996 166.469 179.407H170.155C170.062 180.565 169.721 181.591 169.132 182.486C168.542 183.374 167.74 184.07 166.724 184.574C165.709 185.071 164.515 185.32 163.145 185.32ZM180.459 185.32C178.861 185.32 177.476 184.968 176.304 184.265C175.132 183.562 174.223 182.578 173.577 181.314C172.938 180.05 172.618 178.572 172.618 176.882C172.618 175.192 172.938 173.711 173.577 172.44C174.223 171.168 175.132 170.181 176.304 169.478C177.476 168.775 178.861 168.423 180.459 168.423C182.057 168.423 183.442 168.775 184.614 169.478C185.786 170.181 186.691 171.168 187.331 172.44C187.977 173.711 188.3 175.192 188.3 176.882C188.3 178.572 187.977 180.05 187.331 181.314C186.691 182.578 185.786 183.562 184.614 184.265C183.442 184.968 182.057 185.32 180.459 185.32ZM180.48 182.23C181.347 182.23 182.071 181.992 182.654 181.516C183.236 181.033 183.669 180.387 183.953 179.577C184.245 178.768 184.39 177.866 184.39 176.871C184.39 175.87 184.245 174.964 183.953 174.155C183.669 173.338 183.236 172.688 182.654 172.205C182.071 171.722 181.347 171.481 180.48 171.481C179.593 171.481 178.854 171.722 178.265 172.205C177.682 172.688 177.245 173.338 176.954 174.155C176.67 174.964 176.528 175.87 176.528 176.871C176.528 177.866 176.67 178.768 176.954 179.577C177.245 180.387 177.682 181.033 178.265 181.516C178.854 181.992 179.593 182.23 180.48 182.23ZM205.633 168.636L199.806 185H195.544L189.717 168.636H193.829L197.59 180.792H197.76L201.532 168.636H205.633ZM214.99 185.32C213.349 185.32 211.932 184.979 210.739 184.297C209.553 183.608 208.64 182.635 208.001 181.378C207.362 180.114 207.042 178.626 207.042 176.914C207.042 175.231 207.362 173.754 208.001 172.482C208.647 171.204 209.549 170.21 210.707 169.499C211.865 168.782 213.225 168.423 214.787 168.423C215.796 168.423 216.747 168.587 217.642 168.913C218.544 169.233 219.34 169.73 220.029 170.405C220.725 171.08 221.271 171.939 221.669 172.983C222.067 174.02 222.266 175.256 222.266 176.69V177.873H208.853V175.273H218.569C218.562 174.535 218.402 173.878 218.09 173.303C217.777 172.72 217.34 172.262 216.779 171.928C216.225 171.594 215.579 171.428 214.84 171.428C214.052 171.428 213.36 171.619 212.763 172.003C212.166 172.379 211.701 172.876 211.367 173.494C211.041 174.105 210.874 174.776 210.867 175.508V177.777C210.867 178.729 211.041 179.545 211.389 180.227C211.737 180.902 212.223 181.42 212.848 181.783C213.473 182.138 214.205 182.315 215.043 182.315C215.604 182.315 216.112 182.237 216.566 182.081C217.021 181.918 217.415 181.68 217.749 181.367C218.083 181.055 218.335 180.668 218.505 180.206L222.106 180.611C221.879 181.562 221.445 182.393 220.806 183.104C220.174 183.807 219.365 184.354 218.377 184.744C217.39 185.128 216.261 185.32 214.99 185.32ZM225.528 185V168.636H229.268V171.364H229.438C229.737 170.419 230.248 169.691 230.972 169.18C231.704 168.661 232.538 168.402 233.476 168.402C233.689 168.402 233.927 168.413 234.19 168.434C234.46 168.448 234.683 168.473 234.861 168.509V172.056C234.697 171.999 234.438 171.95 234.083 171.907C233.735 171.857 233.398 171.832 233.071 171.832C232.368 171.832 231.736 171.985 231.175 172.29C230.621 172.589 230.184 173.004 229.864 173.537C229.545 174.07 229.385 174.684 229.385 175.38V185H225.528Z" fill="#222222"/>
<path d="M203.566 125.101C204.542 126.077 206.125 126.077 207.101 125.101C208.077 124.125 208.077 122.542 207.101 121.566L203.566 125.101ZM197.566 119.101L203.566 125.101L207.101 121.566L201.101 115.566L197.566 119.101ZM204.833 106.833C204.833 97.9966 197.67 90.8333 188.833 90.8333V95.8333C194.908 95.8333 199.833 100.758 199.833 106.833H204.833ZM188.833 90.8333C179.997 90.8333 172.833 97.9966 172.833 106.833H177.833C177.833 100.758 182.758 95.8333 188.833 95.8333V90.8333ZM172.833 106.833C172.833 115.67 179.997 122.833 188.833 122.833V117.833C182.758 117.833 177.833 112.908 177.833 106.833H172.833ZM188.833 122.833C197.67 122.833 204.833 115.67 204.833 106.833H199.833C199.833 112.908 194.908 117.833 188.833 117.833V122.833Z" fill="#44B649"/>
<path d="M205.333 90.0001C205.333 71.5906 190.409 56.6667 172 56.6667C153.591 56.6667 138.667 71.5906 138.667 90.0001C138.667 108.409 153.591 123.333 172 123.333" stroke="#44B649" stroke-width="3.5" stroke-linecap="round"/>
<path d="M198.667 68.9967C195.551 69.2213 191.56 70.4275 188.793 74.0093C183.795 80.4788 178.797 81.0186 175.465 78.8621C170.466 75.6274 174.667 70.3879 168.8 67.5406C164.977 65.6848 164.444 60.6349 166.572 56.6667" stroke="#44B649" stroke-width="3.5" stroke-linejoin="round"/>
<path d="M138.667 86.6667C141.208 88.8737 144.768 90.8941 148.963 90.8941C157.628 90.8941 159.361 92.5497 159.361 99.1727C159.361 105.796 159.361 105.796 161.094 110.763C162.222 113.994 162.616 117.225 160.369 120" stroke="#44B649" stroke-width="3.5" stroke-linejoin="round"/>
<rect x="312.75" y="0.75" width="342.5" height="241.5" rx="120.75" stroke="#D5D0DD" stroke-width="1.5"/>
<path d="M445.545 185H438.152V163.182H445.695C447.861 163.182 449.722 163.619 451.277 164.492C452.839 165.359 454.04 166.605 454.878 168.232C455.716 169.858 456.135 171.804 456.135 174.07C456.135 176.342 455.712 178.295 454.867 179.929C454.029 181.562 452.818 182.816 451.234 183.69C449.658 184.563 447.761 185 445.545 185ZM442.104 181.58H445.354C446.874 181.58 448.141 181.303 449.157 180.749C450.173 180.188 450.936 179.354 451.447 178.246C451.959 177.131 452.214 175.739 452.214 174.07C452.214 172.401 451.959 171.016 451.447 169.915C450.936 168.807 450.18 167.979 449.178 167.433C448.184 166.879 446.948 166.602 445.471 166.602H442.104V181.58ZM466.964 185.32C465.324 185.32 463.907 184.979 462.713 184.297C461.527 183.608 460.615 182.635 459.975 181.378C459.336 180.114 459.017 178.626 459.017 176.914C459.017 175.231 459.336 173.754 459.975 172.482C460.622 171.204 461.524 170.21 462.681 169.499C463.839 168.782 465.199 168.423 466.762 168.423C467.77 168.423 468.722 168.587 469.617 168.913C470.519 169.233 471.314 169.73 472.003 170.405C472.699 171.08 473.246 171.939 473.644 172.983C474.042 174.02 474.24 175.256 474.24 176.69V177.873H460.828V175.273H470.544C470.537 174.535 470.377 173.878 470.064 173.303C469.752 172.72 469.315 172.262 468.754 171.928C468.2 171.594 467.554 171.428 466.815 171.428C466.027 171.428 465.334 171.619 464.738 172.003C464.141 172.379 463.676 172.876 463.342 173.494C463.015 174.105 462.848 174.776 462.841 175.508V177.777C462.841 178.729 463.015 179.545 463.363 180.227C463.711 180.902 464.198 181.42 464.823 181.783C465.448 182.138 466.179 182.315 467.017 182.315C467.578 182.315 468.086 182.237 468.541 182.081C468.995 181.918 469.39 181.68 469.723 181.367C470.057 181.055 470.309 180.668 470.48 180.206L474.081 180.611C473.853 181.562 473.42 182.393 472.781 183.104C472.149 183.807 471.339 184.354 470.352 184.744C469.365 185.128 468.235 185.32 466.964 185.32ZM485.791 168.636V171.619H476.118V168.636H485.791ZM478.536 185V167.092C478.536 165.991 478.764 165.075 479.218 164.343C479.68 163.612 480.298 163.065 481.072 162.702C481.846 162.34 482.705 162.159 483.65 162.159C484.318 162.159 484.911 162.212 485.429 162.319C485.948 162.425 486.331 162.521 486.58 162.607L485.813 165.589C485.649 165.54 485.443 165.49 485.195 165.44C484.946 165.384 484.669 165.355 484.364 165.355C483.646 165.355 483.139 165.529 482.84 165.877C482.549 166.218 482.404 166.708 482.404 167.347V185H478.536ZM488.812 185V168.636H492.668V185H488.812ZM490.751 166.314C490.14 166.314 489.614 166.112 489.174 165.707C488.733 165.295 488.513 164.801 488.513 164.226C488.513 163.643 488.733 163.15 489.174 162.745C489.614 162.333 490.14 162.127 490.751 162.127C491.368 162.127 491.894 162.333 492.327 162.745C492.768 163.15 492.988 163.643 492.988 164.226C492.988 164.801 492.768 165.295 492.327 165.707C491.894 166.112 491.368 166.314 490.751 166.314ZM500.49 175.412V185H496.634V168.636H500.32V171.417H500.512C500.888 170.501 501.488 169.773 502.312 169.233C503.143 168.693 504.169 168.423 505.391 168.423C506.52 168.423 507.504 168.665 508.342 169.148C509.187 169.631 509.841 170.33 510.302 171.246C510.771 172.163 511.002 173.274 510.995 174.581V185H507.138V175.178C507.138 174.084 506.854 173.228 506.286 172.61C505.725 171.992 504.947 171.683 503.953 171.683C503.278 171.683 502.678 171.832 502.152 172.131C501.634 172.422 501.225 172.844 500.927 173.398C500.636 173.952 500.49 174.624 500.49 175.412ZM522.159 185.32C520.519 185.32 519.102 184.979 517.909 184.297C516.723 183.608 515.81 182.635 515.171 181.378C514.532 180.114 514.212 178.626 514.212 176.914C514.212 175.231 514.532 173.754 515.171 172.482C515.817 171.204 516.719 170.21 517.877 169.499C519.034 168.782 520.395 168.423 521.957 168.423C522.966 168.423 523.917 168.587 524.812 168.913C525.714 169.233 526.51 169.73 527.199 170.405C527.895 171.08 528.441 171.939 528.839 172.983C529.237 174.02 529.436 175.256 529.436 176.69V177.873H516.023V175.273H525.739C525.732 174.535 525.572 173.878 525.26 173.303C524.947 172.72 524.51 172.262 523.949 171.928C523.395 171.594 522.749 171.428 522.01 171.428C521.222 171.428 520.529 171.619 519.933 172.003C519.336 172.379 518.871 172.876 518.537 173.494C518.211 174.105 518.044 174.776 518.037 175.508V177.777C518.037 178.729 518.211 179.545 518.559 180.227C518.907 180.902 519.393 181.42 520.018 181.783C520.643 182.138 521.375 182.315 522.213 182.315C522.774 182.315 523.282 182.237 523.736 182.081C524.191 181.918 524.585 181.68 524.919 181.367C525.252 181.055 525.505 180.668 525.675 180.206L529.276 180.611C529.049 181.562 528.615 182.393 527.976 183.104C527.344 183.807 526.534 184.354 525.547 184.744C524.56 185.128 523.431 185.32 522.159 185.32Z" fill="#222222"/>
<path d="M479 123.333H475.667C464.667 123.333 459.167 123.333 455.75 119.916C452.333 116.499 452.333 110.999 452.333 100V83.3333C452.333 72.3339 452.333 66.8342 455.75 63.4171C459.167 60 464.667 60 475.667 60H485.667C496.666 60 502.166 60 505.583 63.4171C509 66.8342 509 72.3339 509 83.3333V86.6667" stroke="#44B649" stroke-width="4" stroke-linecap="round" stroke-linejoin="round"/>
<path d="M501.499 121.591L500.046 120.138C499.367 120.525 498.6 120.798 497.756 121.013C497.756 121.013 497.756 121.013 497.756 121.013L497.385 119.56C496.751 119.722 496.075 119.847 495.321 119.977L501.499 121.591ZM501.499 121.591C500.483 122.264 499.362 122.667 498.251 122.951C497.472 123.15 496.679 123.294 495.917 123.426C495.785 123.449 495.655 123.471 495.526 123.493C495.409 123.513 495.292 123.533 495.176 123.553L494.758 121.596L501.499 121.591ZM490.738 117.576L488.78 117.157C488.8 117.041 488.82 116.925 488.84 116.807C488.862 116.678 488.885 116.548 488.907 116.417L490.738 117.576ZM490.738 117.576C490.764 117.425 490.79 117.275 490.815 117.126C490.836 117.002 490.857 116.879 490.878 116.757L490.878 116.757C491.009 116 491.142 115.274 491.32 114.578L490.738 117.576ZM517.576 109.887C517.351 110.154 517.114 110.414 516.872 110.668L516.876 110.673L516.52 111.029C516.362 111.189 516.204 111.346 516.047 111.502C515.97 111.58 515.892 111.657 515.816 111.733L517.576 109.887ZM517.576 109.887L517.702 109.959L518.451 108.662M517.576 109.887L518.451 108.662M518.451 108.662C518.451 108.661 518.451 108.661 518.452 108.66L518.452 108.66L519.202 107.361L519.094 107.299C519.858 105.254 519.858 102.998 519.094 100.953L519.202 100.89L518.452 99.5912C518.452 99.5912 518.452 99.5912 518.452 99.5911L518.451 108.662ZM492.196 112.287L490.742 110.834C490.07 111.85 489.666 112.972 489.382 114.082L492.196 112.287ZM492.196 112.287C491.809 112.966 491.536 113.734 491.32 114.577L492.196 112.287ZM511.219 109.259L512.634 110.673L503.729 119.578L502.315 118.163L511.219 109.259ZM488.2 120.101L489.126 120.299C489.122 120.304 489.119 120.309 489.116 120.314C489.101 120.549 489.136 120.787 489.2 121.013L488.022 122.19C487.995 121.943 487.995 121.693 488.011 121.446L488.011 121.446C488.036 121.052 488.105 120.602 488.2 120.101ZM490.143 124.312L491.319 123.136C491.541 123.2 491.776 123.235 492.007 123.222C492.016 123.216 492.025 123.211 492.034 123.205L492.232 124.134C491.732 124.228 491.281 124.297 490.887 124.322L490.887 124.322C490.64 124.338 490.39 124.339 490.143 124.312ZM504.476 98.2725L503.788 97.5848C503.852 97.5238 503.915 97.4648 503.977 97.4077L504.476 98.2725ZM507.615 97.7101L506.566 95.8928C507.639 95.5914 508.776 95.5914 509.849 95.8928L508.8 97.7101C508.407 97.6524 508.008 97.6524 507.615 97.7101ZM514.926 99.8946L514.061 100.394L514.749 99.7062C514.81 99.7703 514.869 99.833 514.926 99.8946ZM511.939 98.2729L512.439 97.4076C512.5 97.4647 512.563 97.5238 512.627 97.5849L511.939 98.2729ZM501.661 99.6998L503.075 101.114L494.17 110.019L492.756 108.605L501.661 99.6998ZM514.926 108.357C514.869 108.418 514.81 108.481 514.749 108.545L514.926 108.357ZM488.907 116.416C489.039 115.655 489.184 114.861 489.382 114.083L488.907 116.416Z" stroke="#44B649" stroke-width="3"/>
<path d="M497.333 56.6667V63.3334M480.667 56.6667V63.3334M464 56.6667V63.3334" stroke="#44B649" stroke-width="4" stroke-linecap="round" stroke-linejoin="round"/>
<path d="M467.333 99.9999H480.667M467.333 83.3333H494" stroke="#44B649" stroke-width="4" stroke-linecap="round"/>
<rect x="624.75" y="0.75" width="342.5" height="241.5" rx="120.75" stroke="#D5D0DD" stroke-width="1.5"/>
<path d="M745.545 185H738.152V163.182H745.695C747.861 163.182 749.722 163.619 751.277 164.492C752.839 165.359 754.04 166.605 754.878 168.232C755.716 169.858 756.135 171.804 756.135 174.07C756.135 176.342 755.712 178.295 754.867 179.929C754.029 181.562 752.818 182.816 751.234 183.69C749.658 184.563 747.761 185 745.545 185ZM742.104 181.58H745.354C746.874 181.58 748.141 181.303 749.157 180.749C750.173 180.188 750.936 179.354 751.447 178.246C751.959 177.131 752.214 175.739 752.214 174.07C752.214 172.401 751.959 171.016 751.447 169.915C750.936 168.807 750.18 167.979 749.178 167.433C748.184 166.879 746.948 166.602 745.471 166.602H742.104V181.58ZM766.964 185.32C765.324 185.32 763.907 184.979 762.713 184.297C761.527 183.608 760.615 182.635 759.975 181.378C759.336 180.114 759.017 178.626 759.017 176.914C759.017 175.231 759.336 173.754 759.975 172.482C760.622 171.204 761.524 170.21 762.681 169.499C763.839 168.782 765.199 168.423 766.762 168.423C767.77 168.423 768.722 168.587 769.617 168.913C770.519 169.233 771.314 169.73 772.003 170.405C772.699 171.08 773.246 171.939 773.644 172.983C774.042 174.02 774.24 175.256 774.24 176.69V177.873H760.828V175.273H770.544C770.537 174.535 770.377 173.878 770.064 173.303C769.752 172.72 769.315 172.262 768.754 171.928C768.2 171.594 767.554 171.428 766.815 171.428C766.027 171.428 765.334 171.619 764.738 172.003C764.141 172.379 763.676 172.876 763.342 173.494C763.015 174.105 762.848 174.776 762.841 175.508V177.777C762.841 178.729 763.015 179.545 763.363 180.227C763.711 180.902 764.198 181.42 764.823 181.783C765.448 182.138 766.179 182.315 767.017 182.315C767.578 182.315 768.086 182.237 768.541 182.081C768.995 181.918 769.39 181.68 769.723 181.367C770.057 181.055 770.309 180.668 770.48 180.206L774.081 180.611C773.853 181.562 773.42 182.393 772.781 183.104C772.149 183.807 771.339 184.354 770.352 184.744C769.365 185.128 768.235 185.32 766.964 185.32ZM791.651 168.636L785.823 185H781.562L775.735 168.636H779.847L783.607 180.792H783.778L787.549 168.636H791.651ZM801.007 185.32C799.366 185.32 797.95 184.979 796.756 184.297C795.57 183.608 794.658 182.635 794.018 181.378C793.379 180.114 793.06 178.626 793.06 176.914C793.06 175.231 793.379 173.754 794.018 172.482C794.665 171.204 795.567 170.21 796.724 169.499C797.882 168.782 799.242 168.423 800.805 168.423C801.813 168.423 802.765 168.587 803.66 168.913C804.562 169.233 805.357 169.73 806.046 170.405C806.742 171.08 807.289 171.939 807.687 172.983C808.085 174.02 808.283 175.256 808.283 176.69V177.873H794.871V175.273H804.587C804.58 174.535 804.42 173.878 804.107 173.303C803.795 172.72 803.358 172.262 802.797 171.928C802.243 171.594 801.597 171.428 800.858 171.428C800.07 171.428 799.377 171.619 798.781 172.003C798.184 172.379 797.719 172.876 797.385 173.494C797.058 174.105 796.891 174.776 796.884 175.508V177.777C796.884 178.729 797.058 179.545 797.406 180.227C797.754 180.902 798.241 181.42 798.866 181.783C799.491 182.138 800.222 182.315 801.06 182.315C801.621 182.315 802.129 182.237 802.584 182.081C803.038 181.918 803.433 181.68 803.766 181.367C804.1 181.055 804.352 180.668 804.523 180.206L808.124 180.611C807.896 181.562 807.463 182.393 806.824 183.104C806.192 183.807 805.382 184.354 804.395 184.744C803.408 185.128 802.278 185.32 801.007 185.32ZM815.403 163.182V185H811.546V163.182H815.403ZM826.506 185.32C824.908 185.32 823.523 184.968 822.351 184.265C821.179 183.562 820.27 182.578 819.624 181.314C818.985 180.05 818.665 178.572 818.665 176.882C818.665 175.192 818.985 173.711 819.624 172.44C820.27 171.168 821.179 170.181 822.351 169.478C823.523 168.775 824.908 168.423 826.506 168.423C828.104 168.423 829.489 168.775 830.661 169.478C831.833 170.181 832.738 171.168 833.377 172.44C834.024 173.711 834.347 175.192 834.347 176.882C834.347 178.572 834.024 180.05 833.377 181.314C832.738 182.578 831.833 183.562 830.661 184.265C829.489 184.968 828.104 185.32 826.506 185.32ZM826.527 182.23C827.394 182.23 828.118 181.992 828.701 181.516C829.283 181.033 829.716 180.387 830 179.577C830.292 178.768 830.437 177.866 830.437 176.871C830.437 175.87 830.292 174.964 830 174.155C829.716 173.338 829.283 172.688 828.701 172.205C828.118 171.722 827.394 171.481 826.527 171.481C825.64 171.481 824.901 171.722 824.311 172.205C823.729 172.688 823.292 173.338 823.001 174.155C822.717 174.964 822.575 175.87 822.575 176.871C822.575 177.866 822.717 178.768 823.001 179.577C823.292 180.387 823.729 181.033 824.311 181.516C824.901 181.992 825.64 182.23 826.527 182.23ZM837.62 191.136V168.636H841.413V171.342H841.637C841.835 170.945 842.116 170.522 842.478 170.075C842.84 169.62 843.33 169.233 843.948 168.913C844.566 168.587 845.355 168.423 846.313 168.423C847.578 168.423 848.718 168.746 849.733 169.393C850.756 170.032 851.566 170.98 852.162 172.237C852.766 173.487 853.068 175.021 853.068 176.839C853.068 178.636 852.773 180.163 852.183 181.42C851.594 182.678 850.791 183.636 849.776 184.297C848.76 184.957 847.61 185.288 846.324 185.288C845.387 185.288 844.609 185.131 843.991 184.819C843.373 184.506 842.876 184.13 842.499 183.69C842.13 183.242 841.843 182.82 841.637 182.422H841.477V191.136H837.62ZM841.402 176.818C841.402 177.876 841.551 178.803 841.85 179.599C842.155 180.394 842.592 181.016 843.16 181.463C843.735 181.903 844.431 182.124 845.248 182.124C846.1 182.124 846.814 181.896 847.389 181.442C847.965 180.98 848.398 180.352 848.689 179.556C848.987 178.754 849.137 177.841 849.137 176.818C849.137 175.803 848.991 174.901 848.7 174.112C848.409 173.324 847.975 172.706 847.4 172.259C846.825 171.811 846.107 171.587 845.248 171.587C844.424 171.587 843.725 171.804 843.149 172.237C842.574 172.67 842.137 173.278 841.839 174.059C841.548 174.84 841.402 175.76 841.402 176.818Z" fill="#222222"/>
<path d="M806.659 105.011C805.327 104.647 803.952 105.431 803.588 106.763C803.224 108.095 804.009 109.47 805.341 109.834L806.659 105.011ZM811 111.667L808.764 112.785C809.198 113.653 810.096 114.192 811.067 114.166C812.037 114.14 812.905 113.554 813.292 112.664L811 111.667ZM820.166 104.023C821.467 103.562 822.149 102.134 821.688 100.832C821.227 99.5307 819.798 98.849 818.496 99.31L820.166 104.023ZM826.833 106.667C826.833 114.491 820.491 120.833 812.667 120.833V125.833C823.252 125.833 831.833 117.252 831.833 106.667H826.833ZM812.667 120.833C804.843 120.833 798.5 114.491 798.5 106.667H793.5C793.5 117.252 802.081 125.833 812.667 125.833V120.833ZM798.5 106.667C798.5 98.8427 804.843 92.5 812.667 92.5V87.5C802.081 87.5 793.5 96.0813 793.5 106.667H798.5ZM812.667 92.5C820.491 92.5 826.833 98.8427 826.833 106.667H831.833C831.833 96.0813 823.252 87.5 812.667 87.5V92.5ZM806 107.422C805.341 109.834 805.342 109.834 805.341 109.834C805.341 109.834 805.338 109.833 805.337 109.833C805.336 109.832 805.335 109.832 805.334 109.832C805.332 109.831 805.33 109.831 805.328 109.83C805.324 109.829 805.322 109.828 805.32 109.828C805.316 109.827 805.314 109.826 805.316 109.827C805.319 109.828 805.333 109.832 805.357 109.84C805.405 109.856 805.491 109.886 805.606 109.933C805.839 110.027 806.178 110.185 806.56 110.42C807.328 110.896 808.194 111.644 808.764 112.785L813.236 110.549C812.14 108.356 810.505 106.982 809.19 106.168C808.53 105.76 807.932 105.481 807.488 105.3C807.264 105.21 807.077 105.143 806.936 105.096C806.865 105.072 806.806 105.054 806.76 105.04C806.737 105.033 806.716 105.027 806.7 105.022C806.691 105.02 806.684 105.018 806.677 105.016C806.673 105.015 806.67 105.014 806.667 105.013C806.666 105.013 806.664 105.012 806.663 105.012C806.662 105.012 806.663 105.012 806.663 105.012C806.662 105.011 806.659 105.011 806 107.422ZM811 111.667C813.292 112.664 813.293 112.664 813.292 112.664C813.292 112.664 813.292 112.665 813.292 112.664C813.293 112.662 813.294 112.66 813.297 112.655C813.301 112.644 813.309 112.626 813.321 112.6C813.344 112.549 813.38 112.47 813.429 112.366C813.526 112.158 813.673 111.853 813.865 111.478C814.251 110.725 814.808 109.711 815.495 108.657C816.187 107.596 816.979 106.545 817.824 105.688C818.686 104.813 819.484 104.265 820.166 104.023L818.496 99.31C816.826 99.9017 815.405 101.02 814.264 102.177C813.106 103.351 812.109 104.695 811.307 105.926C810.499 107.164 809.856 108.337 809.415 109.199C809.193 109.632 809.02 109.99 808.901 110.244C808.842 110.372 808.795 110.473 808.763 110.545C808.747 110.581 808.734 110.61 808.725 110.631C808.72 110.641 808.716 110.65 808.713 110.656C808.712 110.659 808.711 110.662 808.71 110.664C808.709 110.665 808.71 110.663 808.71 110.664C808.71 110.665 808.708 110.668 808.708 110.668C808.708 110.669 808.708 110.669 811 111.667Z" fill="#44B649"/>
<path d="M812.716 68.988L813.277 71.4241L813.336 71.4106L813.393 71.3944L812.716 68.988ZM808.187 68.4234L806.938 70.5888L806.991 70.6192L807.045 70.647L808.187 68.4234ZM825.185 81.5745L823.326 79.9029L823.321 79.9078L825.185 81.5745ZM816.783 67.8423L817.461 70.2487L817.465 70.2474L816.783 67.8423ZM804.437 64.5499L802.066 65.3436L802.084 65.3948L802.103 65.4452L804.437 64.5499ZM807.064 67.7755L805.716 69.8807L805.765 69.9119L805.815 69.9409L807.064 67.7755ZM803.324 61.2252L800.952 62.0144L800.953 62.019L803.324 61.2252ZM768.56 94.5831L770.423 96.2498L770.474 96.1928L770.522 96.1328L768.56 94.5831ZM777.592 111.012L777.03 108.576L776.972 108.589L776.914 108.605L777.592 111.012ZM782.121 111.577L783.37 109.411L783.318 109.381L783.264 109.353L782.121 111.577ZM773.524 112.157L772.847 109.751L772.842 109.752L773.524 112.157ZM765.123 98.4254L766.982 100.097L766.986 100.092L765.123 98.4254ZM777.592 68.988L776.914 71.3944L776.972 71.4106L777.03 71.4241L777.592 68.988ZM782.12 68.4234L783.263 70.647L783.317 70.6192L783.37 70.5888L782.12 68.4234ZM768.56 85.4168L770.521 83.8671L770.474 83.8071L770.423 83.7501L768.56 85.4168ZM765.123 81.5745L766.986 79.9078L766.982 79.9029L765.123 81.5745ZM773.524 67.8423L772.842 70.2474L772.847 70.2487L773.524 67.8423ZM785.87 64.5499L788.205 65.4452L788.224 65.3948L788.241 65.3436L785.87 64.5499ZM783.243 67.7755L784.493 69.9409L784.543 69.9119L784.592 69.8807L783.243 67.7755ZM786.984 61.2252L789.354 62.019L789.356 62.0144L786.984 61.2252ZM785.87 115.45L788.241 114.656L788.224 114.605L788.204 114.555L785.87 115.45ZM783.244 112.225L784.592 110.12L784.543 110.088L784.493 110.059L783.244 112.225ZM786.984 118.775L789.356 117.986L789.354 117.981L786.984 118.775ZM821.603 81.8289C820.682 82.858 820.77 84.4384 821.8 85.3591C822.829 86.2794 824.409 86.1914 825.33 85.1624L821.603 81.8289ZM791.691 125.823C793.072 125.854 794.216 124.76 794.247 123.379C794.278 121.999 793.184 120.855 791.804 120.824L791.691 125.823ZM801.403 83.2884C802.414 84.2291 803.996 84.1724 804.936 83.1617C805.877 82.151 805.82 80.5691 804.81 79.6284L801.403 83.2884ZM784.788 99.6501C785.729 100.661 787.31 100.717 788.321 99.7768C789.332 98.8361 789.389 97.2544 788.448 96.2438L784.788 99.6501ZM822.192 72.1715L823.837 75.0269L828.17 72.5305L826.524 69.6752L822.192 72.1715ZM812.154 66.5519C811.201 66.7717 810.201 66.6471 809.33 66.1997L807.045 70.647C808.966 71.6339 811.173 71.9093 813.277 71.4241L812.154 66.5519ZM823.837 75.0269C824.45 76.0891 824.8 76.705 825.007 77.184C825.101 77.4002 825.135 77.5215 825.147 77.5817C825.153 77.6095 825.154 77.6232 825.154 77.6262C825.154 77.6288 825.154 77.6293 825.154 77.6312L830.126 78.1536C830.244 77.0317 829.969 76.0588 829.596 75.1972C829.248 74.3947 828.724 73.4925 828.17 72.5305L823.837 75.0269ZM827.044 83.246C827.786 82.4208 828.486 81.6476 828.993 80.9351C829.537 80.1699 830.008 79.2756 830.126 78.1536L825.154 77.6312C825.153 77.633 825.153 77.6335 825.153 77.6359C825.152 77.6388 825.148 77.6519 825.137 77.6779C825.112 77.734 825.054 77.8455 824.918 78.0374C824.616 78.4624 824.145 78.9916 823.326 79.9029L827.044 83.246ZM826.524 69.6752C825.933 68.6481 825.382 67.6849 824.829 66.9442C824.236 66.1499 823.482 65.3882 822.375 64.9379L820.491 69.5695C820.49 69.5687 820.493 69.57 820.491 69.5695C820.493 69.5705 820.507 69.5788 820.529 69.598C820.577 69.6398 820.672 69.7341 820.823 69.9362C821.157 70.3828 821.54 71.0392 822.192 72.1715L826.524 69.6752ZM817.465 70.2474C818.721 69.891 819.452 69.688 820.001 69.6008C820.249 69.5614 820.382 69.5601 820.446 69.5639C820.475 69.5656 820.49 69.5691 820.491 69.5695C820.49 69.5687 820.493 69.57 820.491 69.5695L822.375 64.9379C821.267 64.4874 820.196 64.5072 819.217 64.6627C818.304 64.8076 817.239 65.1142 816.101 65.4373L817.465 70.2474ZM802.103 65.4452C802.803 67.2714 804.069 68.8259 805.716 69.8807L808.413 65.6702C807.666 65.1917 807.09 64.4856 806.771 63.6546L802.103 65.4452ZM797.012 59.1668C798.227 59.1668 798.928 59.1706 799.44 59.2292C799.672 59.2557 799.791 59.2867 799.848 59.3055C799.874 59.3141 799.886 59.3199 799.888 59.321C799.887 59.3203 799.89 59.3219 799.888 59.321L802.818 55.2692C801.909 54.6127 800.935 54.3676 800.009 54.2616C799.146 54.163 798.111 54.1668 797.012 54.1668V59.1668ZM805.696 60.4361C805.348 59.3906 805.025 58.4064 804.659 57.6187C804.266 56.773 803.727 55.9254 802.818 55.2692L799.888 59.321C799.889 59.3218 799.892 59.3235 799.894 59.3251C799.896 59.327 799.905 59.3365 799.922 59.359C799.958 59.4076 800.026 59.5124 800.124 59.7243C800.342 60.194 800.568 60.8598 800.952 62.0144L805.696 60.4361ZM800.953 62.019L802.066 65.3436L806.808 63.7561L805.694 60.4315L800.953 62.019ZM809.437 66.258L808.314 65.61L805.815 69.9409L806.938 70.5888L809.437 66.258ZM813.393 71.3944L817.461 70.2487L816.105 65.436L812.038 66.5816L813.393 71.3944ZM763.783 69.6752L762.138 72.5305L766.47 75.0269L768.115 72.1715L763.783 69.6752ZM762.138 107.469L763.783 110.325L768.115 107.828L766.47 104.973L762.138 107.469ZM770.522 96.1328C771.77 94.5524 772.496 92.1248 772.496 89.9994H767.496C767.496 91.2088 767.03 92.4864 766.598 93.0334L770.522 96.1328ZM778.154 113.448C779.107 113.228 780.107 113.353 780.978 113.8L783.264 109.353C781.342 108.366 779.135 108.09 777.03 108.576L778.154 113.448ZM763.783 110.325C764.375 111.352 764.925 112.315 765.478 113.056C766.071 113.85 766.825 114.612 767.932 115.062L769.816 110.43C769.815 110.43 769.817 110.431 769.816 110.43C769.814 110.429 769.801 110.421 769.779 110.402C769.73 110.36 769.635 110.266 769.484 110.064C769.151 109.617 768.768 108.961 768.115 107.828L763.783 110.325ZM772.842 109.752C771.586 110.109 770.856 110.312 770.306 110.399C770.058 110.438 769.925 110.44 769.862 110.436C769.833 110.434 769.818 110.431 769.816 110.43C769.815 110.43 769.817 110.431 769.816 110.43L767.932 115.062C769.04 115.512 770.111 115.493 771.09 115.337C772.003 115.192 773.068 114.886 774.207 114.562L772.842 109.752ZM766.47 104.973C765.858 103.911 765.507 103.295 765.3 102.816C765.206 102.6 765.173 102.478 765.16 102.418C765.155 102.39 765.154 102.377 765.154 102.374C765.154 102.371 765.154 102.371 765.154 102.369L760.181 101.846C760.063 102.968 760.339 103.941 760.712 104.803C761.059 105.605 761.583 106.507 762.138 107.469L766.47 104.973ZM763.264 96.7538C762.522 97.5791 761.821 98.3524 761.315 99.0648C760.77 99.8301 760.299 100.724 760.181 101.846L765.154 102.369C765.154 102.367 765.154 102.366 765.155 102.364C765.155 102.361 765.159 102.348 765.171 102.322C765.195 102.266 765.253 102.154 765.389 101.962C765.692 101.537 766.162 101.008 766.982 100.097L763.264 96.7538ZM777.03 71.4241C779.134 71.9093 781.342 71.6339 783.263 70.647L780.978 66.1997C780.107 66.6471 779.107 66.7717 778.154 66.5519L777.03 71.4241ZM766.598 86.9664C767.03 87.5131 767.496 88.7918 767.496 89.9994H772.496C772.496 87.8751 771.769 85.4471 770.521 83.8671L766.598 86.9664ZM762.138 72.5305C761.583 73.4925 761.059 74.3947 760.712 75.1972C760.339 76.0588 760.063 77.0316 760.181 78.1535L765.154 77.6312C765.154 77.6293 765.154 77.6288 765.154 77.6262C765.154 77.6232 765.155 77.6095 765.16 77.5817C765.173 77.5215 765.206 77.4002 765.3 77.184C765.507 76.705 765.858 76.0891 766.47 75.0269L762.138 72.5305ZM766.982 79.9029C766.162 78.9916 765.692 78.4624 765.389 78.0374C765.253 77.8455 765.195 77.734 765.171 77.6779C765.159 77.6519 765.155 77.6388 765.155 77.6359C765.154 77.6335 765.154 77.633 765.154 77.6312L760.181 78.1535C760.299 79.2755 760.77 80.1699 761.315 80.9351C761.821 81.6476 762.522 82.4208 763.264 83.246L766.982 79.9029ZM768.115 72.1715C768.768 71.0392 769.151 70.3828 769.484 69.9362C769.635 69.7341 769.73 69.6398 769.779 69.598C769.801 69.5788 769.812 69.5716 769.814 69.5705C769.813 69.571 769.815 69.5698 769.814 69.5705L767.932 64.9379C766.825 65.3882 766.072 66.1499 765.478 66.9442C764.925 67.6849 764.375 68.6481 763.783 69.6752L768.115 72.1715ZM774.207 65.4373C773.068 65.1142 772.003 64.8076 771.09 64.6627C770.111 64.5072 769.04 64.4874 767.932 64.9379L769.814 69.5705C769.815 69.57 769.817 69.5691 769.818 69.5688C769.82 69.5684 769.833 69.5656 769.862 69.5639C769.925 69.5601 770.058 69.5614 770.306 69.6008C770.856 69.688 771.586 69.891 772.842 70.2474L774.207 65.4373ZM783.536 63.6546C783.217 64.4856 782.642 65.1917 781.895 65.6702L784.592 69.8807C786.238 68.8259 787.504 67.2714 788.205 65.4452L783.536 63.6546ZM793.296 54.1668C792.196 54.1668 791.161 54.163 790.299 54.2616C789.372 54.3676 788.398 54.6127 787.489 55.2692L790.416 59.3227C790.417 59.3219 790.417 59.3219 790.419 59.321C790.421 59.3199 790.433 59.3141 790.459 59.3055C790.516 59.2867 790.636 59.2557 790.867 59.2292C791.38 59.1706 792.081 59.1668 793.296 59.1668V54.1668ZM789.356 62.0144C789.74 60.8598 789.965 60.194 790.183 59.7243C790.282 59.5124 790.349 59.4076 790.386 59.359C790.402 59.3365 790.412 59.327 790.414 59.3251C790.415 59.3235 790.415 59.3235 790.416 59.3227L787.489 55.2692C786.58 55.9254 786.041 56.773 785.648 57.6187C785.283 58.4064 784.959 59.3906 784.611 60.4361L789.356 62.0144ZM788.204 114.555C787.504 112.729 786.239 111.174 784.592 110.12L781.895 114.33C782.642 114.808 783.217 115.514 783.536 116.345L788.204 114.555ZM784.611 119.564C784.959 120.609 785.283 121.594 785.648 122.381C786.041 123.227 786.58 124.075 787.489 124.731L790.416 120.677C790.415 120.677 790.415 120.677 790.414 120.675C790.412 120.673 790.402 120.664 790.386 120.641C790.349 120.593 790.282 120.488 790.183 120.276C789.965 119.806 789.74 119.14 789.356 117.986L784.611 119.564ZM784.613 60.4315L783.5 63.7561L788.241 65.3436L789.354 62.019L784.613 60.4315ZM783.37 70.5888L784.493 69.9409L781.994 65.61L780.871 66.258L783.37 70.5888ZM778.27 66.5816L774.202 65.436L772.847 70.2487L776.914 71.3944L778.27 66.5816ZM763.259 83.2411L766.696 87.0834L770.423 83.7501L766.986 79.9078L763.259 83.2411ZM766.696 92.9164L763.259 96.7588L766.986 100.092L770.423 96.2498L766.696 92.9164ZM776.914 108.605L772.847 109.751L774.202 114.564L778.27 113.418L776.914 108.605ZM784.493 110.059L783.37 109.411L780.871 113.742L781.994 114.39L784.493 110.059ZM783.5 116.244L784.613 119.569L789.354 117.981L788.241 114.656L783.5 116.244ZM793.296 59.1668H797.012V54.1668H793.296V59.1668ZM823.321 79.9078L821.603 81.8289L825.33 85.1624L827.048 83.2411L823.321 79.9078ZM791.804 120.824C791.172 120.81 790.819 120.775 790.596 120.729C790.496 120.709 790.447 120.691 790.43 120.684C790.421 120.68 790.417 120.677 790.416 120.677L787.489 124.731C788.827 125.697 790.361 125.793 791.691 125.823L791.804 120.824ZM785.993 90.0001C785.993 84.9374 790.097 80.8334 795.16 80.8334V75.8334C787.335 75.8334 780.993 82.1761 780.993 90.0001H785.993ZM795.16 80.8334C797.573 80.8334 799.764 81.763 801.403 83.2884L804.81 79.6284C802.282 77.2759 798.887 75.8334 795.16 75.8334V80.8334ZM788.448 96.2438C786.922 94.6048 785.993 92.4138 785.993 90.0001H780.993C780.993 93.7271 782.435 97.1228 784.788 99.6501L788.448 96.2438Z" fill="#44B649"/>
<rect x="936.75" y="0.75" width="278.5" height="241.5" rx="120.75" stroke="#D5D0DD" stroke-width="1.5"/>
<path d="M1034.55 185H1027.15V163.182H1034.69C1036.86 163.182 1038.72 163.619 1040.28 164.492C1041.84 165.359 1043.04 166.605 1043.88 168.232C1044.72 169.858 1045.13 171.804 1045.13 174.07C1045.13 176.342 1044.71 178.295 1043.87 179.929C1043.03 181.562 1041.82 182.816 1040.23 183.69C1038.66 184.563 1036.76 185 1034.55 185ZM1031.1 181.58H1034.35C1035.87 181.58 1037.14 181.303 1038.16 180.749C1039.17 180.188 1039.94 179.354 1040.45 178.246C1040.96 177.131 1041.21 175.739 1041.21 174.07C1041.21 172.401 1040.96 171.016 1040.45 169.915C1039.94 168.807 1039.18 167.979 1038.18 167.433C1037.18 166.879 1035.95 166.602 1034.47 166.602H1031.1V181.58ZM1055.96 185.32C1054.32 185.32 1052.91 184.979 1051.71 184.297C1050.53 183.608 1049.61 182.635 1048.98 181.378C1048.34 180.114 1048.02 178.626 1048.02 176.914C1048.02 175.231 1048.34 173.754 1048.98 172.482C1049.62 171.204 1050.52 170.21 1051.68 169.499C1052.84 168.782 1054.2 168.423 1055.76 168.423C1056.77 168.423 1057.72 168.587 1058.62 168.913C1059.52 169.233 1060.31 169.73 1061 170.405C1061.7 171.08 1062.25 171.939 1062.64 172.983C1063.04 174.02 1063.24 175.256 1063.24 176.69V177.873H1049.83V175.273H1059.54C1059.54 174.535 1059.38 173.878 1059.06 173.303C1058.75 172.72 1058.31 172.262 1057.75 171.928C1057.2 171.594 1056.55 171.428 1055.81 171.428C1055.03 171.428 1054.33 171.619 1053.74 172.003C1053.14 172.379 1052.68 172.876 1052.34 173.494C1052.02 174.105 1051.85 174.776 1051.84 175.508V177.777C1051.84 178.729 1052.02 179.545 1052.36 180.227C1052.71 180.902 1053.2 181.42 1053.82 181.783C1054.45 182.138 1055.18 182.315 1056.02 182.315C1056.58 182.315 1057.09 182.237 1057.54 182.081C1058 181.918 1058.39 181.68 1058.72 181.367C1059.06 181.055 1059.31 180.668 1059.48 180.206L1063.08 180.611C1062.85 181.562 1062.42 182.393 1061.78 183.104C1061.15 183.807 1060.34 184.354 1059.35 184.744C1058.36 185.128 1057.24 185.32 1055.96 185.32ZM1070.36 163.182V185H1066.5V163.182H1070.36ZM1074.33 185V168.636H1078.18V185H1074.33ZM1076.26 166.314C1075.65 166.314 1075.13 166.112 1074.69 165.707C1074.25 165.295 1074.03 164.801 1074.03 164.226C1074.03 163.643 1074.25 163.15 1074.69 162.745C1075.13 162.333 1075.65 162.127 1076.26 162.127C1076.88 162.127 1077.41 162.333 1077.84 162.745C1078.28 163.15 1078.5 163.643 1078.5 164.226C1078.5 164.801 1078.28 165.295 1077.84 165.707C1077.41 166.112 1076.88 166.314 1076.26 166.314ZM1096.76 168.636L1090.94 185H1086.68L1080.85 168.636H1084.96L1088.72 180.792H1088.89L1092.66 168.636H1096.76ZM1106.12 185.32C1104.48 185.32 1103.06 184.979 1101.87 184.297C1100.68 183.608 1099.77 182.635 1099.13 181.378C1098.49 180.114 1098.17 178.626 1098.17 176.914C1098.17 175.231 1098.49 173.754 1099.13 172.482C1099.78 171.204 1100.68 170.21 1101.84 169.499C1103 168.782 1104.36 168.423 1105.92 168.423C1106.93 168.423 1107.88 168.587 1108.77 168.913C1109.68 169.233 1110.47 169.73 1111.16 170.405C1111.86 171.08 1112.4 171.939 1112.8 172.983C1113.2 174.02 1113.4 175.256 1113.4 176.69V177.873H1099.98V175.273H1109.7C1109.69 174.535 1109.53 173.878 1109.22 173.303C1108.91 172.72 1108.47 172.262 1107.91 171.928C1107.36 171.594 1106.71 171.428 1105.97 171.428C1105.18 171.428 1104.49 171.619 1103.89 172.003C1103.3 172.379 1102.83 172.876 1102.5 173.494C1102.17 174.105 1102 174.776 1102 175.508V177.777C1102 178.729 1102.17 179.545 1102.52 180.227C1102.87 180.902 1103.35 181.42 1103.98 181.783C1104.6 182.138 1105.34 182.315 1106.17 182.315C1106.73 182.315 1107.24 182.237 1107.7 182.081C1108.15 181.918 1108.55 181.68 1108.88 181.367C1109.21 181.055 1109.47 180.668 1109.64 180.206L1113.24 180.611C1113.01 181.562 1112.58 182.393 1111.94 183.104C1111.31 183.807 1110.5 184.354 1109.51 184.744C1108.52 185.128 1107.39 185.32 1106.12 185.32ZM1116.66 185V168.636H1120.4V171.364H1120.57C1120.87 170.419 1121.38 169.691 1122.1 169.18C1122.83 168.661 1123.67 168.402 1124.61 168.402C1124.82 168.402 1125.06 168.413 1125.32 168.434C1125.59 168.448 1125.81 168.473 1125.99 168.509V172.056C1125.83 171.999 1125.57 171.95 1125.21 171.907C1124.87 171.857 1124.53 171.832 1124.2 171.832C1123.5 171.832 1122.87 171.985 1122.31 172.29C1121.75 172.589 1121.31 173.004 1121 173.537C1120.68 174.07 1120.52 174.684 1120.52 175.38V185H1116.66Z" fill="#222222"/>
<path d="M1091 81.3334L1061 64.0334M1046.9 73.2001L1076 90.0334L1105.1 73.2001M1076 123.6V90.0001M1106 103.333V76.6667C1106 75.4977 1105.69 74.3494 1105.11 73.3373C1104.52 72.3251 1103.68 71.4846 1102.67 70.9001L1079.33 57.5667C1078.32 56.9816 1077.17 56.6736 1076 56.6736C1074.83 56.6736 1073.68 56.9816 1072.67 57.5667L1049.33 70.9001C1048.32 71.4846 1047.48 72.3251 1046.89 73.3373C1046.31 74.3494 1046 75.4977 1046 76.6667V103.333C1046 104.502 1046.31 105.651 1046.89 106.663C1047.48 107.675 1048.32 108.516 1049.33 109.1L1072.67 122.433C1073.68 123.019 1074.83 123.327 1076 123.327C1077.17 123.327 1078.32 123.019 1079.33 122.433L1102.67 109.1C1103.68 108.516 1104.52 107.675 1105.11 106.663C1105.69 105.651 1106 104.502 1106 103.333Z" stroke="#44B649" stroke-width="4" stroke-linecap="round" stroke-linejoin="round"/>
</svg>
