<svg width="64" height="64" viewBox="0 0 64 64" fill="none" xmlns="http://www.w3.org/2000/svg">
<path d="M32 54C24.8 54 17.8 50.4 13.6 44H24V40H8V56H12V48.6C17 54.6 24.2 58 32 58V54ZM62 46V42H57.8C57.6 40.8 57 39.6 56.4 38.4L59.4 35.4L56.6 32.6L53.6 35.6C52.6 35 51.4 34.4 50 34.2V30H46V34.2C44.8 34.4 43.6 35 42.4 35.6L39.4 32.6L36.6 35.4L39.6 38.4C39 39.4 38.4 40.6 38.2 42H34V46H38.2C38.4 47.2 39 48.4 39.6 49.6L36.6 52.6L39.4 55.4L42.4 52.4C43.4 53 44.6 53.6 46 53.8V58H50V53.8C51.2 53.6 52.4 53 53.6 52.4L56.6 55.4L59.4 52.6L56.4 49.6C57 48.6 57.6 47.4 57.8 46H62ZM48 50C44.6 50 42 47.4 42 44C42 40.6 44.6 38 48 38C51.4 38 54 40.6 54 44C54 47.4 51.4 50 48 50ZM40 20H50.4C43.8 9.8 30.2 7 20 13.6C13.8 17.6 10 24.6 10 32H6C6 17.6 17.6 6 32 6C39.8 6 47 9.4 52 15.4V8H56V24H40V20Z" fill="#44B649"/>
</svg>
