<svg width="64" height="64" viewBox="0 0 64 64" fill="none" xmlns="http://www.w3.org/2000/svg">
<path d="M24 22H28V34H24V22ZM14 26H18V34H14V26ZM4 14H8V34H4V14Z" fill="#44B649"/>
<path d="M59.9999 57.172L44.8959 42.068C48.197 38.1238 50.004 33.1433 49.9999 28C49.9999 15.87 40.1299 6 27.9999 6C23.1939 6 18.6299 7.52 14.7979 10.4L17.1979 13.6C20.3088 11.2526 24.1027 9.9882 27.9999 10C37.9259 10 45.9999 18.074 45.9999 28C45.9999 37.926 37.9259 46 27.9999 46C25.2036 46.0107 22.4439 45.3647 19.9428 44.1142C17.4417 42.8636 15.2691 41.0434 13.5999 38.8L10.3999 41.204C12.4405 43.9452 15.0961 46.1691 18.1529 47.6969C21.2098 49.2246 24.5826 50.0135 27.9999 50C33.3459 50 38.2519 48.08 42.0679 44.896L57.1719 60L59.9999 57.172Z" fill="#44B649"/>
</svg>
