<svg width="166" height="81" viewBox="0 0 166 81" fill="none" xmlns="http://www.w3.org/2000/svg">
<path fill-rule="evenodd" clip-rule="evenodd" d="M111.74 75C110 77.41 108.15 80 107.79 80.67H136.29C136.89 80.67 139.63 76.43 140 75.93C140.24 75.62 140.47 75.3 140.71 74.93H136.08C135.23 78.59 130.38 77.41 130.38 74.07C130.38 71.27 135.22 69.8 136.08 73.5H141.74C142.36 72.62 142.98 71.75 143.61 70.89L143.8 70.63C141.1 70.43 142.02 68.63 140.64 68.63H132.64C131.84 68.63 130.27 71.13 129.79 71.76C129.31 72.39 128.95 72.9 128.44 73.54L127.81 74.34C127.41 74.73 127.81 74.9 126.94 74.9L111.74 75ZM136.52 40.85L133.02 45.73C127.92 52.46 122.72 60.01 117.59 67.02H122.12C123.01 63.7 127.82 64.89 127.82 67.87C127.82 70.85 123.01 72.05 122.12 68.73H116.33C115.86 69.37 115.38 70.01 114.9 70.64C114.63 71 113.78 72.16 112.76 73.57H126.68C127.45 72.11 130.28 68.87 131.52 67.02H141.21C141.74 66.02 142.21 65.02 143.78 65.02C144.378 64.9585 144.98 65.0819 145.506 65.3733C146.032 65.6648 146.455 66.1103 146.72 66.65C148.07 64.75 149.42 62.86 150.84 60.98C152.06 59.36 153.26 57.7 154.46 55.98L165.27 40.98C165.45 40.51 162.49 36.64 162.05 36.05L151.23 21.05C149.64 18.88 137.23 1.80997 136.91 0.969971H108L129.43 30.82C130.71 32.49 131.81 34.14 133.04 35.82L136.52 40.85ZM31.8501 80.72C32.3201 78.14 36.4001 73.18 38.0301 70.93C38.7301 69.93 44.4701 62.34 44.8001 61.54C44.3801 61.26 41.3201 56.91 41.0001 56.44C38.2501 52.44 34.5001 47.65 31.7001 43.55L30.3101 41.62C29.7101 40.78 29.5901 41.01 30.6801 39.57L37.0001 30.9C39.3501 27.58 41.6701 24.21 44.1201 20.95C44.7501 20.12 45.2701 19.34 45.8901 18.49L58.3901 0.999969H29.2501C29.0501 1.87997 26.5201 5.06996 25.8401 6.04996L6.19012 33.34C5.14012 34.91 1.38012 39.9 0.870117 40.86L2.66013 43.45C3.00013 43.89 3.19012 44.21 3.53012 44.7L9.11011 52.4C9.47011 52.89 9.73011 53.25 10.0501 53.72C13.9501 59.44 19.0501 65.95 23.0001 71.72L28.5601 79.44C29.7001 81 29.4101 80.72 31.8501 80.72ZM142.64 67.88C143.3 66.62 142.8 67.13 144.06 66.46C145.32 67.13 144.82 66.62 145.49 67.88C144.82 69.15 145.32 68.64 144.06 69.31C142.8 68.64 143.3 69.15 142.64 67.88ZM125.82 69C123.82 69.47 123.54 69.07 123.54 67.58C123.54 65.88 127.16 66 125.82 69ZM132.09 74.42C132.062 74.2348 132.074 74.0456 132.125 73.8655C132.177 73.6853 132.267 73.5184 132.389 73.3763C132.511 73.2341 132.662 73.12 132.832 73.0418C133.003 72.9635 133.188 72.9231 133.375 72.9231C133.562 72.9231 133.748 72.9635 133.918 73.0418C134.088 73.12 134.239 73.2341 134.362 73.3763C134.484 73.5184 134.573 73.6853 134.625 73.8655C134.677 74.0456 134.688 74.2348 134.66 74.42C134.66 76 132.09 76 132.09 74.44V74.42ZM35.1601 80.68C42.2601 80.84 50.4101 80.62 57.6401 80.68H67.4501C68.6001 80.68 68.9201 80 69.4501 79.23L73.8101 73.17C75.8801 70.46 77.6801 67.73 79.7201 65.04L85.5901 57.04C87.5901 54.3 89.5101 51.69 91.5101 48.92L100.25 36.83C101.66 34.83 114.8 17.12 115.02 16.39C112.02 11.87 107.58 6.38996 104.62 1.86996C104.21 1.23996 104.18 0.999969 103.52 0.999969H93.2601C92.7301 0.999969 91.6401 2.79996 91.3101 3.26996C90.7201 4.10996 90.1001 4.95996 89.4601 5.79996C88.1701 7.47996 87.1101 9.11996 85.8401 10.8C82.2601 15.47 78.4901 21.07 74.9801 25.75C74.3201 26.62 73.7801 27.39 73.2001 28.2C72.6201 29.01 71.9601 29.82 71.3401 30.72C70.1601 32.44 68.9201 34 67.7101 35.72L60.4701 45.72C59.8601 46.58 59.2901 47.33 58.6801 48.15L42.3201 70.59C41.4801 71.65 35.5701 79.52 35.1601 80.7V80.68Z" fill="#44B649"/>
</svg>
